Coordinates
version=1
nRows=8
nColumns=28
inDegrees=yes

Units are S.I. units (second, meters, Newtons, ...)
Angles are in degrees.

endheader
time	pelvis_tilt	pelvis_list	pelvis_rotation	pelvis_tx	pelvis_ty	pelvis_tz	hip_flexion_r	hip_adduction_r	hip_rotation_r	knee_angle_r	ankle_angle_r	subtalar_angle_r	mtp_angle_r	hip_flexion_l	hip_adduction_l	hip_rotation_l	knee_angle_l	socket_flexion	socket_adduction	socket_rotation	socket_tx	socket_ty	socket_tz	foot_flex	lumbar_extension	lumbar_bending	lumbar_rotation
      0.00000000	      4.30920455	    -13.81553309	    -16.97755982	     -0.78354124	      1.00224053	      0.32254049	    -27.67897190	      8.52820640	      2.66589911	     -9.76012502	      4.12523276	      5.23585626	     35.30938775	     15.57158077	    -19.05520542	      6.53804493	     -6.38397985	      0.00000000	      0.00000000	      0.00000000	      0.00000000	     -0.01695379	      0.00000000	     -2.10902305	    -19.56937858	      9.36682339	     24.38758883
      0.00416667	      4.23561153	    -13.85622265	    -16.92900435	     -0.77818698	      1.00150354	      0.32208029	    -27.72121098	      8.52756651	      2.77291184	    -10.04521663	      3.99332428	      5.20804638	     35.30852361	     15.35782223	    -19.02715868	      6.56226813	     -6.33716659	      0.00000000	      0.00000000	      0.00000000	      0.00000000	     -0.01790349	      0.00000000	     -2.38657031	    -19.41791446	      9.43232547	     24.38180969
      0.00833333	      4.17376488	    -13.88242478	    -16.83657400	     -0.77257231	      1.00074146	      0.32153099	    -27.80038490	      8.52242508	      2.85183558	    -10.28526239	      3.93156677	      5.18901925	     35.30754357	     15.17976984	    -18.95487482	      6.56361384	     -6.39384099	      0.00000000	      0.00000000	      0.00000000	      0.00000000	     -0.01880433	      0.00000000	     -2.46342568	    -19.24275455	      9.48978376	     24.37507948
      0.01250000	      4.04692976	    -13.95145233	    -16.94937475	     -0.76701386	      1.00007914	      0.32117547	    -27.60098738	      8.49026497	      2.91098766	    -10.98508589	      3.56478692	      4.88077129	     35.28760814	     14.90909231	    -19.00634584	      6.44361112	     -6.27769223	      0.00000000	      0.00000000	      0.00000000	      0.00000000	     -0.01979477	      0.00000000	     -2.90091005	    -19.11733532	      9.59229004	     24.31267523
      0.01666667	      3.98275843	    -13.96778522	    -16.84875611	     -0.76100375	      0.99933554	      0.32058082	    -27.67307395	      8.47902022	      3.02073535	    -11.25207283	      3.49515270	      4.84513659	     35.28869339	     14.71795671	    -18.91355325	      6.46191509	     -6.33920802	      0.00000000	      0.00000000	      0.00000000	      0.00000000	     -0.02075398	      0.00000000	     -2.95748069	    -18.92044232	      9.64387419	     24.30659894
      0.02083333	      3.82365247	    -13.97048014	    -16.99047913	     -0.75525547	      0.99875244	      0.32026740	    -27.38626944	      8.40337996	      3.17329774	    -12.03166413	      3.03221419	      4.30152486	     35.27322957	     14.49084926	    -18.90183168	      6.32652083	     -6.26503942	      0.00000000	      0.00000000	      0.00000000	      0.00000000	     -0.02160142	      0.00000000	     -3.35761273	    -18.75464333	      9.67632548	     24.23362111
      0.02500000	      3.24179291	    -14.04819858	    -17.28440887	     -0.74928499	      0.99790340	      0.32015314	    -27.01396526	      8.59158162	      4.56987641	    -12.25789623	      2.25347325	      1.81197312	     35.65664664	     14.69827763	    -19.10602538	      6.19065420	     -6.31605901	      0.00000000	      0.00000000	      0.00000000	      0.00000000	     -0.02239226	      0.00000000	     -3.50466606	    -18.10523470	      9.87928657	     24.51378924
      0.02916667	      3.20732276	    -14.05822182	    -17.14874413	     -0.74292813	      0.99730825	      0.31949241	    -27.08857578	      8.58534343	      4.68797359	    -12.57441833	      2.16513139	      1.79576593	     35.65246785	     14.48492339	    -18.97702558	      6.23258777	     -6.40804436	      0.00000000	      0.00000000	      0.00000000	      0.00000000	     -0.02335886	      0.00000000	     -3.57970760	    -17.90843818	      9.92783042	     24.49830637
